<svg width="450" height="450" viewBox="0 0 450 450" fill="none" xmlns="http://www.w3.org/2000/svg">
<circle cx="225" cy="225" r="225" fill="#6B02FE"/>
<circle cx="295.5" cy="138.5" r="12.5" transform="rotate(90 295.5 138.5)" fill="#D9D9D9"/>
<circle cx="296" cy="279" r="10" transform="rotate(90 296 279)" fill="#D9D9D9"/>
<circle cx="253" cy="115" r="5" transform="rotate(90 253 115)" fill="#D9D9D9"/>
<circle cx="271.5" cy="121.5" r="7.5" transform="rotate(90 271.5 121.5)" fill="#D9D9D9"/>
<circle cx="253" cy="300" r="5" transform="rotate(90 253 300)" fill="#D9D9D9"/>
<circle cx="270.5" cy="294.5" r="7.5" transform="rotate(90 270.5 294.5)" fill="#D9D9D9"/>
<circle cx="318" cy="167" r="15" transform="rotate(90 318 167)" fill="#D9D9D9"/>
<circle cx="318" cy="249" r="15" transform="rotate(90 318 249)" fill="#D9D9D9"/>
<circle cx="327.5" cy="207.5" r="17.5" transform="rotate(90 327.5 207.5)" fill="#D9D9D9"/>
<circle cx="134.5" cy="163.5" r="12.5" fill="#D9D9D9"/>
<circle cx="275" cy="163" r="10" fill="#D9D9D9"/>
<circle cx="111" cy="206" r="5" fill="#D9D9D9"/>
<circle cx="117.5" cy="187.5" r="7.5" fill="#D9D9D9"/>
<circle cx="296" cy="206" r="5" fill="#D9D9D9"/>
<circle cx="290.5" cy="188.5" r="7.5" fill="#D9D9D9"/>
<circle cx="163" cy="141" r="15" fill="#D9D9D9"/>
<circle cx="245" cy="141" r="15" fill="#D9D9D9"/>
<circle cx="203.5" cy="131.5" r="17.5" fill="#D9D9D9"/>
<circle cx="158.734" cy="322.904" r="12.5" transform="rotate(-90 158.734 322.904)" fill="#D9D9D9"/>
<circle cx="159.398" cy="182.405" r="10" transform="rotate(-90 159.398 182.405)" fill="#D9D9D9"/>
<circle cx="201.038" cy="346.755" r="5" transform="rotate(-90 201.038 346.755)" fill="#D9D9D9"/>
<circle cx="182.593" cy="340.102" r="7.5" transform="rotate(-90 182.593 340.102)" fill="#D9D9D9"/>
<circle cx="202.57" cy="161.761" r="5" transform="rotate(-90 202.57 161.761)" fill="#D9D9D9"/>
<circle cx="185.025" cy="167.116" r="7.5" transform="rotate(-90 185.025 167.116)" fill="#D9D9D9"/>
<circle cx="136.471" cy="294.219" r="15" transform="rotate(-90 136.471 294.219)" fill="#D9D9D9"/>
<circle cx="137.15" cy="212.221" r="15" transform="rotate(-90 137.15 212.221)" fill="#D9D9D9"/>
<circle cx="127.307" cy="253.641" r="17.5" transform="rotate(-90 127.307 253.641)" fill="#D9D9D9"/>
<circle cx="320.95" cy="297.411" r="12.5" transform="rotate(180 320.95 297.411)" fill="#D9D9D9"/>
<circle cx="180.45" cy="297.911" r="10" transform="rotate(180 180.45 297.911)" fill="#D9D9D9"/>
<circle cx="344.45" cy="254.911" r="5" transform="rotate(180 344.45 254.911)" fill="#D9D9D9"/>
<circle cx="337.95" cy="273.411" r="7.5" transform="rotate(180 337.95 273.411)" fill="#D9D9D9"/>
<circle cx="159.45" cy="254.911" r="5" transform="rotate(180 159.45 254.911)" fill="#D9D9D9"/>
<circle cx="164.95" cy="272.411" r="7.5" transform="rotate(180 164.95 272.411)" fill="#D9D9D9"/>
<circle cx="292.45" cy="319.911" r="15" transform="rotate(180 292.45 319.911)" fill="#D9D9D9"/>
<circle cx="210.45" cy="319.911" r="15" transform="rotate(180 210.45 319.911)" fill="#D9D9D9"/>
<circle cx="251.95" cy="329.411" r="17.5" transform="rotate(180 251.95 329.411)" fill="#D9D9D9"/>
</svg>
